HIERARCHY
ROOT Hips
{
	OFFSET 0.000000 8.830580 0.000000
	CHANNELS 6 Xposition Yposition Zposition Zrotation Yrotation Xrotation 
	JOINT Spine
	{
		OFFSET 0.000000 0.010000 0.000000
		CHANNELS 3 Zrotation Yrotation Xrotation
		JOINT Spine1
		{
			OFFSET 0.000000 2.459130 0.000000
			CHANNELS 3 Zrotation Yrotation Xrotation
			JOINT Neck
			{
				OFFSET 0.000000 2.484630 0.000000
				CHANNELS 3 Zrotation Yrotation Xrotation
				JOINT Head_virtual
				{
					OFFSET 0.000000 0.000000 0.000000
					CHANNELS 3 Zrotation Yrotation Xrotation
					JOINT Head
					{
						OFFSET 0.000000 0.927525 0.000000
						CHANNELS 3 Zrotation Yrotation Xrotation
						End Site
						{
							OFFSET 0.000000 0.000000 0.000000
						}
					}
				}
				JOINT LeftUpArm_virtual
				{
					OFFSET 0.000000 0.000000 0.000000
					CHANNELS 3 Zrotation Yrotation Xrotation
					JOINT LeftUpArm
					{
						OFFSET 1.248820 0.000000 0.000000
						CHANNELS 3 Zrotation Yrotation Xrotation
						JOINT LeftForeArm
						{
							OFFSET 2.597580 0.000000 0.000000
							CHANNELS 3 Zrotation Yrotation Xrotation
							JOINT LeftHand
							{
								OFFSET 2.455420 0.000000 0.000000
								CHANNELS 3 Zrotation Yrotation Xrotation
								End Site
								{
									OFFSET 0.000000 0.000000 0.000000
								}
							}
						}
					}
				}
				JOINT RightUpArm_virtual
				{
					OFFSET -0.000000 -0.000000 -0.000000
					CHANNELS 3 Zrotation Yrotation Xrotation
					JOINT RightUpArm
					{
						OFFSET -1.248820 -0.000000 -0.000000
						CHANNELS 3 Zrotation Yrotation Xrotation
						JOINT RightForeArm
						{
							OFFSET -2.597580 -0.000000 -0.000000
							CHANNELS 3 Zrotation Yrotation Xrotation
							JOINT RightHand
							{
								OFFSET -2.455420 -0.000000 -0.000000
								CHANNELS 3 Zrotation Yrotation Xrotation
								End Site
								{
									OFFSET 0.000000 0.000000 0.000000
								}
							}
						}
					}
				}
			}
		}
	}
	JOINT LeftUpLeg
	{
		OFFSET 1.271939 0.000000 0.000000
		CHANNELS 3 Zrotation Yrotation Xrotation
		JOINT LeftLowLeg
		{
			OFFSET 0.000000 -4.342910 0.000000
			CHANNELS 3 Zrotation Yrotation Xrotation
			JOINT LeftFoot
			{
				OFFSET 0.000000 -4.487670 0.000000
				CHANNELS 3 Zrotation Yrotation Xrotation
				JOINT LeftToeBase
				{
					OFFSET 0.000000 0.000000 1.515070
					CHANNELS 3 Zrotation Yrotation Xrotation
					End Site
					{
						OFFSET 0.000000 0.000000 0.000000
					}
				}
			}
		}
	}
	JOINT RightUpLeg
	{
		OFFSET -1.271939 0.000000 0.000000
		CHANNELS 3 Zrotation Yrotation Xrotation
		JOINT RightLowLeg
		{
			OFFSET 0.000000 -4.342910 0.000000
			CHANNELS 3 Zrotation Yrotation Xrotation
			JOINT RightFoot
			{
				OFFSET 0.000000 -4.487670 0.000000
				CHANNELS 3 Zrotation Yrotation Xrotation
				JOINT RightToeBase
				{
					OFFSET 0.000000 0.000000 1.515070
					CHANNELS 3 Zrotation Yrotation Xrotation
					End Site
					{
						OFFSET 0.000000 0.000000 0.000000
					}
				}
			}
		}
	}
}
MOTION
Frames: 5
Frame Time: 0.041667
-19.344529 9.200206 42.273180 -174.636455 -2.025535 -173.494901 3.402795 -1.940706 -9.482419 0.595251 -2.365657 4.735155 0.000000 0.000000 0.000000 -3.526405 2.036335 -11.674609 4.320509 6.183744 -55.007141 -1.627870 11.907700 -2.716300 -12.411400 -1.902300 -28.280500 0.000000 -19.914301 0.000000 29.418200 8.862010 28.652599 8.042100 -10.084400 0.637899 9.647570 0.124599 -33.924702 0.000000 18.371599 0.000000 -17.298100 -1.467440 25.985399 6.161853 -4.046355 -6.304228 0.000000 0.000000 8.022830 9.556305 2.400786 5.213999 0.000000 0.000000 -32.509899 3.893753 5.707403 -4.173807 0.000000 0.000000 6.266620 6.467728 -7.993836 9.837770 0.000000 0.000000 -27.428700 
-19.344711 9.200480 42.272567 -174.636934 -2.018835 -173.485432 3.406622 -1.931795 -9.474454 0.595428 -2.358138 4.771500 0.000000 0.000000 0.000000 -3.605892 2.096883 -11.660295 4.323821 6.215505 -55.114882 -1.639990 11.951900 -2.747200 -12.388800 -1.917210 -28.289200 0.000000 -19.955601 0.000000 29.406200 8.850000 28.586201 8.058660 -10.095900 0.631694 9.625840 0.123087 -33.876202 0.000000 18.378700 0.000000 -17.250700 -1.426080 25.968901 6.159912 -4.050644 -6.299700 0.000000 0.000000 8.005770 9.558191 2.412230 5.229396 0.000000 0.000000 -32.518801 3.891900 5.705976 -4.173978 0.000000 0.000000 6.254140 6.457096 -7.990895 9.849486 0.000000 0.000000 -27.427200 
-19.344781 9.200412 42.271582 -174.636089 -2.019666 -173.463652 3.431546 -1.903414 -9.478488 0.553467 -2.336998 4.775531 0.000000 0.000000 0.000000 -3.513869 2.039757 -11.712654 4.286665 6.207983 -55.065966 -1.596970 11.913600 -2.757350 -12.395600 -1.875410 -28.298300 0.000000 -19.980600 0.000000 29.386700 8.816150 28.570299 8.057120 -10.133900 0.649212 9.653780 0.109149 -33.841801 0.000000 18.413900 0.000000 -17.211100 -1.436850 25.936001 6.160932 -4.053254 -6.305325 0.000000 0.000000 7.986310 9.558382 2.418299 5.230702 0.000000 0.000000 -32.517500 3.889879 5.718017 -4.179141 0.000000 0.000000 6.233280 6.467481 -7.999781 9.851006 0.000000 0.000000 -27.411800 
-19.345109 9.200427 42.270759 -174.637938 -2.018366 -173.441458 3.446134 -1.892355 -9.493025 0.532357 -2.330148 4.808786 0.000000 0.000000 0.000000 -3.506207 2.040312 -11.752472 4.283589 6.212071 -55.068742 -1.565750 11.922300 -2.743280 -12.405500 -1.868340 -28.324100 0.000000 -19.976900 0.000000 29.354200 8.792880 28.464300 8.056580 -10.127100 0.653042 9.679660 0.096434 -33.904400 0.000000 18.423500 0.000000 -17.227200 -1.414320 25.903200 6.158145 -4.056921 -6.308101 0.000000 0.000000 7.959060 9.555188 2.426686 5.237920 0.000000 0.000000 -32.511101 3.884716 5.705552 -4.178829 0.000000 0.000000 6.198710 6.465012 -7.986988 9.862805 0.000000 0.000000 -27.419600 
-19.345201 9.200480 42.269736 -174.638883 -2.023354 -173.412124 3.467329 -1.871794 -9.504958 0.492341 -2.315660 4.805743 0.000000 0.000000 0.000000 -3.483446 2.038461 -11.742987 4.317128 6.216347 -55.075618 -1.529040 11.909400 -2.738760 -12.395800 -1.874850 -28.318300 0.000000 -19.939600 0.000000 29.382000 8.786940 28.491800 8.083140 -10.158400 0.661802 9.664790 0.115143 -33.884800 0.000000 18.383801 0.000000 -17.243999 -1.389510 25.833900 6.157636 -4.060876 -6.324763 0.000000 0.000000 7.943360 9.568821 2.437508 5.246370 0.000000 0.000000 -32.523300 3.884605 5.670003 -4.180489 0.000000 0.000000 6.157760 6.453570 -7.968062 9.878838 0.000000 0.000000 -27.419400 
